<svg xmlns="http://www.w3.org/2000/svg" width="23.807" height="23.808" viewBox="0 0 23.807 23.808"><defs><style>.a{fill:#fff;}</style></defs><path class="a" d="M21.623,5.031a.2.2,0,0,0,0-.023c-.03-.043-.066-.079-.1-.121q-.333-.454-.706-.874c-.068-.077-.136-.152-.206-.227q-.384-.411-.8-.783c-.052-.046-.1-.094-.152-.139A11.921,11.921,0,0,0,17.4,1.34c-.032-.017-.066-.031-.1-.048A11.828,11.828,0,0,0,16.192.8c-.085-.031-.162-.06-.243-.085Q15.446.532,14.928.4c-.1-.027-.2-.055-.308-.079-.34-.079-.68-.139-1.028-.189-.105-.015-.209-.036-.316-.048a11.182,11.182,0,0,0-2.7,0c-.106.013-.21.033-.316.048-.348.049-.691.11-1.028.189-.1.024-.206.052-.308.079Q8.405.532,7.906.714C7.821.743,7.744.771,7.663.8a11.821,11.821,0,0,0-1.106.492c-.033.017-.067.031-.1.048A11.924,11.924,0,0,0,4.193,2.864c-.052.045-.1.093-.152.139a11.062,11.062,0,0,0-.8.783c-.07.075-.138.151-.206.227q-.373.419-.706.874c-.031.042-.067.078-.1.121a.193.193,0,0,0-.01.023,11.83,11.83,0,0,0,0,13.743.185.185,0,0,0,.01.023c.03.043.066.079.1.121q.333.454.706.874c.068.077.136.152.206.227q.384.411.8.783c.052.046.1.094.152.139A11.921,11.921,0,0,0,6.45,22.465c.032.017.066.031.1.048a11.829,11.829,0,0,0,1.106.492c.085.031.162.06.243.085q.5.181,1.021.317c.1.027.2.055.308.079.34.079.68.139,1.028.189.105.015.209.036.316.048a11.182,11.182,0,0,0,2.7,0c.106-.013.21-.033.316-.048.348-.049.691-.11,1.028-.189.1-.024.206-.052.308-.079q.522-.136,1.021-.317c.085-.029.162-.058.243-.085a11.822,11.822,0,0,0,1.106-.492c.033-.017.067-.031.1-.048a11.923,11.923,0,0,0,2.257-1.524c.052-.045.1-.093.152-.139a10.828,10.828,0,0,0,.8-.783c.07-.075.138-.151.206-.227q.373-.42.706-.874c.031-.042.067-.078.1-.121a.193.193,0,0,0,.01-.023A11.83,11.83,0,0,0,21.623,5.031Zm-.97,1.609a10.12,10.12,0,0,1,1.435,4.412H16.992a15.871,15.871,0,0,0-.476-3A15.284,15.284,0,0,0,20.652,6.64ZM14.088,1.931c.048.011.094.026.141.037a9.153,9.153,0,0,1,.9.255c.045.015.089.033.134.049q.439.153.863.34l.147.071q.406.193.793.418l.17.1q.367.225.714.481c.06.043.119.085.178.133a7.76,7.76,0,0,1,.652.547c.054.049.111.1.164.149.218.207.425.425.626.652.026.03.053.057.078.085a14.267,14.267,0,0,1-3.628,1.165,21.627,21.627,0,0,0-2.29-4.544C13.851,1.893,13.971,1.905,14.088,1.931ZM8.553,11.052A14.192,14.192,0,0,1,9.02,8.33a24.372,24.372,0,0,0,2.9.17,24.428,24.428,0,0,0,2.906-.174,14.165,14.165,0,0,1,.465,2.726Zm6.743,1.7a14.192,14.192,0,0,1-.468,2.722,24.893,24.893,0,0,0-5.81,0,14.169,14.169,0,0,1-.465-2.722Zm-3.372-10.5a20.543,20.543,0,0,1,2.37,4.423,22.512,22.512,0,0,1-2.37.126,22.682,22.682,0,0,1-2.368-.127A20.7,20.7,0,0,1,11.924,2.251ZM4.278,5.165c.2-.226.408-.445.626-.652.054-.051.11-.1.164-.149q.315-.287.652-.547c.059-.045.118-.085.178-.133q.347-.255.714-.481l.17-.1q.387-.226.793-.418l.147-.071q.424-.191.863-.34c.044-.016.085-.034.134-.049.3-.1.6-.18.9-.255.048-.011.094-.026.142-.037.117-.026.237-.037.356-.059A21.628,21.628,0,0,0,7.827,6.416,14.266,14.266,0,0,1,4.2,5.251C4.225,5.222,4.252,5.194,4.278,5.165ZM3.2,6.64A15.281,15.281,0,0,0,7.331,8.05a15.871,15.871,0,0,0-.475,3H1.761A10.122,10.122,0,0,1,3.2,6.64Zm0,10.525a10.12,10.12,0,0,1-1.435-4.412H6.856a15.871,15.871,0,0,0,.476,3A15.281,15.281,0,0,0,3.2,17.165ZM9.76,21.874c-.048-.011-.094-.026-.141-.037a9.154,9.154,0,0,1-.9-.255c-.045-.015-.089-.033-.134-.049q-.439-.153-.863-.34l-.147-.071q-.406-.193-.793-.418l-.17-.1q-.367-.225-.714-.481c-.06-.043-.119-.085-.178-.133a7.761,7.761,0,0,1-.652-.547c-.054-.049-.111-.1-.164-.149-.218-.207-.425-.425-.626-.652-.026-.03-.053-.057-.078-.085a14.267,14.267,0,0,1,3.628-1.165,21.627,21.627,0,0,0,2.29,4.544C10,21.912,9.877,21.9,9.76,21.874Zm2.164-.32a20.543,20.543,0,0,1-2.37-4.423,22.142,22.142,0,0,1,4.739,0h0A20.7,20.7,0,0,1,11.924,21.555Zm7.646-2.914c-.2.226-.408.445-.626.652-.054.051-.11.1-.164.149q-.315.288-.652.547c-.059.045-.118.089-.178.133q-.347.255-.714.481l-.17.1q-.386.225-.793.418l-.147.071q-.424.191-.863.34c-.044.016-.085.034-.134.049-.3.1-.6.18-.9.255-.048.011-.094.026-.142.037-.117.026-.237.037-.356.059a21.625,21.625,0,0,0,2.29-4.544,14.266,14.266,0,0,1,3.628,1.165C19.623,18.584,19.6,18.611,19.57,18.641Zm1.082-1.476a15.281,15.281,0,0,0-4.135-1.41,15.871,15.871,0,0,0,.475-3h5.095A10.122,10.122,0,0,1,20.652,17.165Z" transform="translate(-0.016 0.002)"/></svg>