<svg xmlns="http://www.w3.org/2000/svg" width="24.088" height="24.128" viewBox="0 0 24.088 24.128"><defs><style>.a{fill:none;stroke:#fff;stroke-linecap:round;stroke-linejoin:round;stroke-width:3px;}</style></defs><path class="a" d="M16.132,5.508a5.01,5.01,0,0,1,3.958,3.958M16.132,1.5A9.018,9.018,0,0,1,24.1,9.456m-1,8v3.006a2,2,0,0,1-2.184,2,19.829,19.829,0,0,1-8.647-3.076,19.539,19.539,0,0,1-6.012-6.012A19.829,19.829,0,0,1,3.176,4.686,2,2,0,0,1,5.17,2.5H8.176a2,2,0,0,1,2,1.723,12.866,12.866,0,0,0,.7,2.816,2,2,0,0,1-.451,2.114L9.158,10.428A16.032,16.032,0,0,0,15.17,16.44l1.273-1.273a2,2,0,0,1,2.114-.451,12.865,12.865,0,0,0,2.816.7A2,2,0,0,1,23.1,17.452Z" transform="translate(-1.667 0.156)"/></svg>