<svg id="coworking-place" xmlns="http://www.w3.org/2000/svg" width="40.626" height="40.63" viewBox="0 0 40.626 40.63">
  <g id="Grupo_931" data-name="Grupo 931" transform="translate(0 0)">
    <g id="Grupo_930" data-name="Grupo 930">
      <path id="Trazado_224" data-name="Trazado 224" d="M39.732,191.718H35.816a4.384,4.384,0,0,0-4.384-4.343H25.666a4.384,4.384,0,0,0-4.384,4.343H20.1a4.384,4.384,0,0,0-4.384-4.343H9.95a4.384,4.384,0,0,0-4.384,4.343H1.649a1.243,1.243,0,0,0-1.241,1.241v1.48a1.243,1.243,0,0,0,1.241,1.241h.233v16.352a1.1,1.1,0,0,0,1.1,1.1h1.43a1.1,1.1,0,0,0,1.1-1.1V195.68h.823l.729,3.232A2.922,2.922,0,0,0,9.936,201.2h.584l.124,1.225H9.154a2.3,2.3,0,0,0-2.3,2.3A1.376,1.376,0,0,0,8.232,206.1h3.994v4.261H11.073a3.18,3.18,0,0,0-2.935,1.946.6.6,0,1,0,1.1.463,1.992,1.992,0,0,1,1.838-1.219h3.52a1.992,1.992,0,0,1,1.838,1.219.6.6,0,1,0,1.1-.463,3.18,3.18,0,0,0-2.935-1.946H13.416V206.1H17.36a1.377,1.377,0,0,0,1.375-1.375,2.3,2.3,0,0,0-2.3-2.3H15.022l.124-1.225h.584a2.933,2.933,0,0,0,2.7-1.789.6.6,0,0,0-1.1-.465,1.744,1.744,0,0,1-1.609,1.064H9.936a1.738,1.738,0,0,1-1.7-1.363l-1.4-6.189a3.193,3.193,0,0,1,3.115-3.9h5.766a3.193,3.193,0,0,1,3.115,3.9l-.876,3.884a.6.6,0,0,0,1.161.262l.209-.927h2.732l.729,3.232a2.922,2.922,0,0,0,2.866,2.291h.62l.124,1.225H24.907a2.3,2.3,0,0,0-2.3,2.3,1.376,1.376,0,0,0,1.375,1.375H28v4.261H26.825a3.18,3.18,0,0,0-2.935,1.946.6.6,0,1,0,1.1.463,1.992,1.992,0,0,1,1.838-1.219h3.52a1.992,1.992,0,0,1,1.838,1.219.6.6,0,1,0,1.1-.463,3.179,3.179,0,0,0-2.935-1.947H29.187V206.1h3.926a1.377,1.377,0,0,0,1.375-1.375,2.3,2.3,0,0,0-2.3-2.3H30.774L30.9,201.2h.547a2.922,2.922,0,0,0,2.866-2.291l.729-3.232h.823v16.352a1.1,1.1,0,0,0,1.1,1.1H38.4a1.1,1.1,0,0,0,1.1-1.1v-2.668a.6.6,0,0,0-1.19,0v2.58H37.054V195.68h1.255v10.913a.6.6,0,1,0,1.19,0V195.68h.233a1.243,1.243,0,0,0,1.241-1.241v-1.48a1.243,1.243,0,0,0-1.241-1.241Zm-35.4,20.227H3.072V195.68H4.327ZM1.649,194.49a.051.051,0,0,1-.051-.051v-1.48a.051.051,0,0,1,.051-.051H5.715l.357,1.582H1.649Zm12.3,6.714-.124,1.225H11.84l-.124-1.225Zm2.489,2.416a1.108,1.108,0,0,1,1.107,1.107.185.185,0,0,1-.185.185H8.232a.185.185,0,0,1-.185-.185,1.108,1.108,0,0,1,1.107-1.107Zm3.155-9.13.357-1.582h1.481l.357,1.582Zm12.6,9.13a1.108,1.108,0,0,1,1.107,1.107.185.185,0,0,1-.185.185H23.984a.185.185,0,0,1-.185-.185,1.108,1.108,0,0,1,1.107-1.107ZM27.468,201.2H29.7l-.124,1.225H27.592Zm7.078-8.743-1.4,6.189a1.738,1.738,0,0,1-1.705,1.363H25.652a1.739,1.739,0,0,1-1.705-1.363l-1.4-6.189a3.193,3.193,0,0,1,3.115-3.9h5.766a3.193,3.193,0,0,1,3.115,3.9Zm5.236,1.977a.051.051,0,0,1-.051.051H35.309l.357-1.582h4.066a.051.051,0,0,1,.051.051Z" transform="translate(-0.402 -172.506)" fill="#073558"/>
      <path id="Trazado_225" data-name="Trazado 225" d="M1.734,3.423H5.722V4.637A1.983,1.983,0,0,0,4.337,6.525v.808a4.2,4.2,0,0,0-2.178,3.41.8.8,0,0,0,.8.849H9.673a.8.8,0,0,0,.8-.849A4.2,4.2,0,0,0,8.3,7.332V6.525A1.983,1.983,0,0,0,6.912,4.637V3.423H19.74V4.637a1.983,1.983,0,0,0-1.385,1.888v.808a4.2,4.2,0,0,0-2.178,3.41.8.8,0,0,0,.8.849h6.712a.8.8,0,0,0,.8-.849,4.2,4.2,0,0,0-2.178-3.41V6.525A1.983,1.983,0,0,0,20.93,4.637V3.423H33.758V4.637a1.983,1.983,0,0,0-1.385,1.888v.808a4.2,4.2,0,0,0-2.178,3.41.8.8,0,0,0,.8.849H37.71a.8.8,0,0,0,.8-.849,4.2,4.2,0,0,0-2.178-3.41V6.525a1.983,1.983,0,0,0-1.385-1.888V3.423h3.988a1.712,1.712,0,0,0,0-3.423H1.734a1.712,1.712,0,1,0,0,3.423ZM7.472,8.255A3,3,0,0,1,9.232,10.4H3.4a3,3,0,0,1,1.76-2.147l0,0a2.973,2.973,0,0,1,2.3,0h0Zm-.366-1.73v.382a4.156,4.156,0,0,0-1.579,0V6.525a.789.789,0,0,1,1.579,0ZM21.49,8.255A3,3,0,0,1,23.25,10.4H17.42a3,3,0,0,1,1.76-2.147h0a2.973,2.973,0,0,1,2.3,0Zm-.366-1.73v.382a4.156,4.156,0,0,0-1.579,0V6.525a.789.789,0,0,1,1.579,0Zm14.384,1.73a3,3,0,0,1,1.76,2.147h-5.83A3,3,0,0,1,33.2,8.254h0a2.973,2.973,0,0,1,2.3,0l0,0Zm-.365-1.73v.382a4.156,4.156,0,0,0-1.579,0V6.525a.789.789,0,0,1,1.579,0ZM1.734,1.19h37.2a.521.521,0,1,1,0,1.043H1.734a.521.521,0,1,1,0-1.043Z" transform="translate(-0.022 0)" fill="#073558"/>
    </g>
  </g>
</svg>
