<svg xmlns="http://www.w3.org/2000/svg" width="41.691" height="40.82" viewBox="0 0 41.691 40.82"><defs><style>.a{fill:#073558;}</style></defs><g transform="translate(6.023 18.697)"><path class="a" d="M95.459,220.321l-.53-.494a.054.054,0,0,1-.009-.036l-2.2-5.151a2.934,2.934,0,0,0-2.679-1.789H74.02a2.934,2.934,0,0,0-2.679,1.789l-2.175,5.079-.809.692A3.878,3.878,0,0,0,67,223.359v8.755a2.86,2.86,0,0,0,2.859,2.859h1.654a2.845,2.845,0,0,0,2.859-2.841V231.1H89.293v1.007a2.864,2.864,0,0,0,2.85,2.858H93.8a2.86,2.86,0,0,0,2.868-2.85v-8.989A3.9,3.9,0,0,0,95.459,220.321ZM73,215.341a1.13,1.13,0,0,1,1.025-.692H90.03a1.13,1.13,0,0,1,1.025.692l1.663,3.892h-.755a4.548,4.548,0,0,0-8.917,0H71.333Zm17.124,3.892h-5.2a2.749,2.749,0,0,1,5.2,0ZM72.573,232.106a1.059,1.059,0,0,1-1.043,1.061H69.868a1.055,1.055,0,0,1-1.07-1.043v-1.2a2.872,2.872,0,0,0,1.07.171h2.706Zm22.293.009a1.063,1.063,0,0,1-1.061,1.061c0-.009,0-.009-.009-.009H92.151a1.042,1.042,0,0,1-1.061-1.043V231.1H93.8a2.9,2.9,0,0,0,1.07-.171v1.187Zm.009-3.847h-.009a1.03,1.03,0,0,1-1.043,1.034H69.868a1.042,1.042,0,0,1-1.07-1.007v-4.935a2.042,2.042,0,0,1,.728-1.573l.872-.746h23.21l.62.593a2.075,2.075,0,0,1,.647,1.5Z" transform="translate(-67 -212.851)"/></g><g transform="translate(8.899 28.855)"><g transform="translate(0)"><path class="a" d="M104.573,325.851H99.9a.9.9,0,0,0-.9.9v3.236a.9.9,0,0,0,.9.9h4.674a.9.9,0,0,0,.9-.9V326.75A.9.9,0,0,0,104.573,325.851Zm-.9,3.236H100.8v-1.438h2.877Z" transform="translate(-99 -325.851)"/></g></g><g transform="translate(26.338 28.855)"><g transform="translate(0)"><path class="a" d="M298.573,325.851H293.9a.9.9,0,0,0-.9.9v3.236a.9.9,0,0,0,.9.9h4.674a.9.9,0,0,0,.9-.9V326.75A.9.9,0,0,0,298.573,325.851Zm-.9,3.236H294.8v-1.438h2.876Z" transform="translate(-293 -325.851)"/></g></g><g transform="translate(16.953 31.911)"><path class="a" d="M195.513,359.851H189.5a.9.9,0,1,0,0,1.8h6.014a.9.9,0,0,0,0-1.8Z" transform="translate(-188.6 -359.851)"/></g><g transform="translate(16.953 29.484)"><path class="a" d="M195.513,332.851H189.5a.9.9,0,1,0,0,1.8h6.014a.9.9,0,0,0,0-1.8Z" transform="translate(-188.6 -332.851)"/></g><g transform="translate(0 0)"><path class="a" d="M40.792,4.849H.917A.9.9,0,0,0,0,5.73V44.779a.9.9,0,0,0,.917.881H3.73a.918.918,0,0,0,.935-.881V16.985H37.026V44.779a.918.918,0,0,0,.935.881h2.814a.9.9,0,0,0,.917-.881V5.73A.875.875,0,0,0,40.792,4.849ZM2.877,43.862H1.8V6.647H2.877ZM37.035,15.187H4.674V6.647H37.035Zm2.877,28.675H38.833V6.647h1.079Z" transform="translate(0 -4.849)"/></g></svg>