<svg xmlns="http://www.w3.org/2000/svg" width="41.427" height="41.427" viewBox="0 0 41.427 41.427"><defs><style>.a{fill:#073558;}</style></defs><g transform="translate(0 0)"><path class="a" d="M39.526,37.624h-5.5V12.916a.607.607,0,0,0-1.214,0v1.4H8.617V8.334h7.039V9.09a.932.932,0,0,0,.93.93h1.9v1.9a.932.932,0,0,0,.93.93h2.589a.932.932,0,0,0,.93-.93v-1.9h1.9a.932.932,0,0,0,.93-.93V8.334H32.81v1.988a.607.607,0,0,0,1.214,0V7.727a.607.607,0,0,0-.607-.607H29.088V.607A.607.607,0,0,0,28.481,0H18.023a.607.607,0,1,0,0,1.214h9.851V7.12h-2.1V6.5a.932.932,0,0,0-.93-.93h-1.9v-1.9a.932.932,0,0,0-.93-.93H19.419a.932.932,0,0,0-.93.93v1.9h-1.9a.932.932,0,0,0-.93.93V7.12h-2.1V1.214h1.972a.607.607,0,0,0,0-1.214H12.946a.607.607,0,0,0-.607.607V7.12H8.01a.607.607,0,0,0-.607.607v29.9H1.9a1.9,1.9,0,0,0,0,3.8H7.727a.607.607,0,1,0,0-1.214H1.9a.688.688,0,0,1,0-1.376H39.526a.688.688,0,0,1,0,1.376H10.376a.607.607,0,1,0,0,1.214H39.526a1.9,1.9,0,0,0,0-3.8ZM16.87,6.784h1.9a.932.932,0,0,0,.93-.93v-1.9h2.023v1.9a.932.932,0,0,0,.93.93h1.9V8.807h-1.9a.932.932,0,0,0-.93.93v1.9H19.7v-1.9a.932.932,0,0,0-.93-.93h-1.9ZM32.8,15.527v1.214H8.617V15.527Zm-18.841,22.1V33.983h1.537v3.641Zm10.761-3.641v3.641h-8.01V33.983Zm1.214,3.641V33.983H27.47v3.641Zm2.751,0V33.376a.607.607,0,0,0-.607-.607H13.351a.607.607,0,0,0-.607.607v4.248H8.617V17.954H32.81v19.67Z"/><path class="a" d="M133.476,234.5h-4.369a.607.607,0,0,0-.607.607v4.046a.607.607,0,0,0,.607.607h4.369a.607.607,0,0,0,.607-.607v-4.046A.607.607,0,0,0,133.476,234.5Zm-.607,4.046h-3.156v-2.832h3.156Z" transform="translate(-118.103 -215.526)"/><path class="a" d="M319.476,234.5h-4.369a.607.607,0,0,0-.607.607v4.046a.607.607,0,0,0,.607.607h4.369a.607.607,0,0,0,.607-.607v-4.046A.607.607,0,0,0,319.476,234.5Zm-.607,4.046h-3.156v-2.832h3.156Z" transform="translate(-289.053 -215.526)"/><path class="a" d="M226.476,234.5h-4.369a.607.607,0,0,0-.607.607v4.046a.607.607,0,0,0,.607.607h4.369a.607.607,0,0,0,.607-.607v-4.046A.607.607,0,0,0,226.476,234.5Zm-.607,4.046h-3.156v-2.832h3.156Z" transform="translate(-203.578 -215.526)"/><path class="a" d="M133.476,321.5h-4.369a.607.607,0,0,0-.607.607v4.046a.607.607,0,0,0,.607.607h4.369a.607.607,0,0,0,.607-.607v-4.046A.607.607,0,0,0,133.476,321.5Zm-.607,4.046h-3.156v-2.832h3.156Z" transform="translate(-118.103 -295.487)"/><path class="a" d="M319.476,321.5h-4.369a.607.607,0,0,0-.607.607v4.046a.607.607,0,0,0,.607.607h4.369a.607.607,0,0,0,.607-.607v-4.046A.607.607,0,0,0,319.476,321.5Zm-.607,4.046h-3.156v-2.832h3.156Z" transform="translate(-289.053 -295.487)"/><path class="a" d="M226.476,321.5h-4.369a.607.607,0,0,0-.607.607v4.046a.607.607,0,0,0,.607.607h4.369a.607.607,0,0,0,.607-.607v-4.046A.607.607,0,0,0,226.476,321.5Zm-.607,4.046h-3.156v-2.832h3.156Z" transform="translate(-203.578 -295.487)"/></g></svg>