<svg xmlns="http://www.w3.org/2000/svg" width="43.373" height="43.373" viewBox="0 0 43.373 43.373"><defs><style>.a{fill:#073558;}</style></defs><path class="a" d="M43.2,23.686a2.175,2.175,0,0,0,2.169-2.169V11.4A2.175,2.175,0,0,0,43.2,9.229H27.3A2.175,2.175,0,0,0,25.132,11.4v10.12A2.175,2.175,0,0,0,27.3,23.686h5.06v1.446A2.175,2.175,0,0,0,30.192,27.3v.723H28.024V25.855a.723.723,0,0,0-.723-.723H24.409a.723.723,0,0,0-.723.723v2.169H22.241V21.518A3.62,3.62,0,0,0,20,18.178l-1.214-6.072a2.119,2.119,0,0,0,1.366-.614,2.148,2.148,0,0,0,.643-1.54,2.175,2.175,0,0,0-2.169-2.169V7.06a5.06,5.06,0,1,0-10.12,0v.723a2.164,2.164,0,0,0-.159,4.323L7.132,18.178a3.62,3.62,0,0,0-2.241,3.34v6.506H2.723A.723.723,0,0,0,2,28.746v4.337a.723.723,0,0,0,.723.723H4.892V44.65a.723.723,0,0,0,.723.723H8.506a.723.723,0,0,0,.723-.723V38.144h1.518a3.952,3.952,0,0,0-.072.723V44.65a.723.723,0,0,0,.723.723H22.963a.723.723,0,0,0,.723-.723V38.867A3.58,3.58,0,0,0,22.241,36v-2.19h15.9V44.65a.723.723,0,0,0,.723.723h2.892a.723.723,0,0,0,.723-.723V33.807H44.65a.723.723,0,0,0,.723-.723V28.746a.723.723,0,0,0-.723-.723H40.312V27.3a2.175,2.175,0,0,0-2.169-2.169V23.686ZM25.132,26.578h1.446v1.446H25.132ZM18.626,9.229a.723.723,0,0,1,.723.723.686.686,0,0,1-.224.513.671.671,0,0,1-.5.21Zm-.889,5.024.73,3.651H15.735V15.959a4.983,4.983,0,0,0,2-1.706ZM13.566,3.446a3.621,3.621,0,0,1,3.542,2.9,5.044,5.044,0,0,0-7.084,0A3.621,3.621,0,0,1,13.566,3.446ZM9.952,9.952a3.614,3.614,0,1,1,7.229,0V11.4a3.614,3.614,0,1,1-7.229,0ZM14.289,16.4v1.5H12.843V16.4A4.547,4.547,0,0,0,14.289,16.4ZM9.4,14.253a4.983,4.983,0,0,0,2,1.706V17.9H8.665Zm-1.612-4.3a.686.686,0,0,1,.224-.513.671.671,0,0,1,.5-.21v1.446A.723.723,0,0,1,7.783,9.952ZM6.337,21.518a2.175,2.175,0,0,1,2.169-2.169h10.12a2.175,2.175,0,0,1,2.169,2.169v6.506H19.349V27.3a2.175,2.175,0,0,0-2.169-2.169H10.675V22.241H9.229v3.614a.723.723,0,0,0,.723.723H17.18a.723.723,0,0,1,.723.723v.723H6.337ZM7.783,43.927H6.337V33.807H7.783Zm8.675,0H12.12v-5.06a2.169,2.169,0,1,1,4.337,0Zm.723-7.207a3.577,3.577,0,0,0-5.761-.022H9.229V33.807H20.795v1.518a3.952,3.952,0,0,0-.723-.072A3.61,3.61,0,0,0,17.18,36.72Zm5.06,7.207H17.9v-5.06a2.169,2.169,0,1,1,4.337,0Zm18.795,0H39.59V33.807h1.446Zm2.892-14.458v2.892H3.446V29.469ZM38.867,27.3v.723H31.638V27.3a.723.723,0,0,1,.723-.723h5.783A.723.723,0,0,1,38.867,27.3Zm-5.06-2.169V23.686H36.7v1.446ZM27.3,22.241a.723.723,0,0,1-.723-.723V11.4a.723.723,0,0,1,.723-.723H43.2a.723.723,0,0,1,.723.723v10.12a.723.723,0,0,1-.723.723Z" transform="translate(-2 -2)"/></svg>