<svg id="cama_1_" data-name="cama(1)" xmlns="http://www.w3.org/2000/svg" width="50.41" height="40.001" viewBox="0 0 50.41 40.001">
  <g id="Grupo_181" data-name="Grupo 181" transform="translate(0 0)">
    <path id="Trazado_42" data-name="Trazado 42" d="M50.41,75.632a4.377,4.377,0,0,0-2.381-3.921,12.689,12.689,0,0,0-5.764-1.154h-25.3a5.06,5.06,0,0,0-1.191-2.408L12.19,64.161A5.279,5.279,0,0,0,8.6,62.474l-.644-.046a2.536,2.536,0,0,0-.987.131V60.451a2.584,2.584,0,0,0-.808-1.878,3.483,3.483,0,1,0-5.35,0A2.584,2.584,0,0,0,0,60.451V91.878a.985.985,0,0,0,.985.985h3.4a.985.985,0,0,0,.98-.892c.117-1.24.773-4.645,2.4-6.172H10.4a.985.985,0,1,0,0-1.969H1.969V75.162H15.111v2.566a2.756,2.756,0,0,0,2.753,2.753H47.657a2.764,2.764,0,0,0,.784-.114V83.83H19.06a.985.985,0,1,0,0,1.969H42.65c1.618,1.523,2.278,4.931,2.4,6.172a.985.985,0,0,0,.98.892h3.4a.985.985,0,0,0,.985-.985ZM6.969,65.779c.015-.42-.043-.853.3-1.161s.765-.209,1.187-.179a3.279,3.279,0,0,1,2.267,1.04l3.587,3.988A3.357,3.357,0,0,1,15.1,72a1.223,1.223,0,0,1-.343.987,1.275,1.275,0,0,1-.965.189,3.358,3.358,0,0,1-2.439-1.048L7.764,68.143a3.332,3.332,0,0,1-.795-2.364Zm-5,7.414V60.451a.623.623,0,0,1,.622-.622H4.375A.623.623,0,0,1,5,60.451V73.192H1.969Zm5-2.992,2.692,2.992H6.967ZM3.483,54.831a1.514,1.514,0,1,1-1.514,1.514A1.516,1.516,0,0,1,3.483,54.831Zm.042,36.062H1.969V85.8h3.3a15,15,0,0,0-1.746,5.095ZM17.864,78.511a.785.785,0,0,1-.784-.784v-5.2H42.265a10.791,10.791,0,0,1,4.868.938,2.416,2.416,0,0,1,1.309,2.168v2.092s0,0,0,0a.785.785,0,0,1-.784.784H17.864ZM46.885,90.894A15.007,15.007,0,0,0,45.14,85.8h3.3v5.095Z" transform="translate(0 -52.862)" fill="#073558"/>
    <path id="Trazado_43" data-name="Trazado 43" d="M141.507,368.026a.984.984,0,1,0-.533,1.286A.993.993,0,0,0,141.507,368.026Z" transform="translate(-125.869 -336.45)" fill="#073558"/>
  </g>
</svg>
