<svg xmlns="http://www.w3.org/2000/svg" width="75.634" height="45.018" viewBox="0 0 75.634 45.018"><defs><style>.a{fill:#073558;}.b{fill:none;}</style></defs><path class="a" d="M34.427,238.74a2.327,2.327,0,1,1-2.327,2.327A2.327,2.327,0,0,1,34.427,238.74Zm0,3.6a1.271,1.271,0,1,1,0-.006Z" transform="translate(-26.915 -200.179)"/><path class="a" d="M173.4,238.74a2.327,2.327,0,1,1-2.327,2.327A2.327,2.327,0,0,1,173.4,238.74Zm0,3.6a1.271,1.271,0,1,1,0-.006Z" transform="translate(-143.439 -200.179)"/><path class="a" d="M35.948,183.378v.57a1.155,1.155,0,0,1-1.155,1.153h-.969a4.127,4.127,0,0,1-7.721,0H20.967a.527.527,0,1,1,0-1.053h4.889a4.1,4.1,0,0,1,0-.77H11.629a4.1,4.1,0,0,1,0,.77h6.884a.527.527,0,1,1,0,1.053H11.374a4.128,4.128,0,0,1-7.722,0h-2.5A1.153,1.153,0,0,1,0,183.948v-.57a1.153,1.153,0,0,1,.654-1.037V180.71a3.534,3.534,0,0,1,2.83-3.466l5.225-1.066c.04-.008.081-.019.121-.031a1.434,1.434,0,0,1,1.389-1.087h.066l1.615-1.389a.527.527,0,0,1,.686.8l-.89.767a1.454,1.454,0,0,1,.578.6l2.441-2.1a4.543,4.543,0,0,1,1.938-.984,23.457,23.457,0,0,1,12.6.549,4.582,4.582,0,0,1,2.376,1.853.824.824,0,0,1-.153,1.061l-2.161,1.882a.817.817,0,0,1-.539.2H12.023a1.428,1.428,0,0,1-1.014.422h-.791a1.434,1.434,0,0,1-1.431-1.433v-.045l-4.613.942v1.53a1.454,1.454,0,0,1-1.454,1.454H1.707v1.058H3.634a4.13,4.13,0,0,1,7.753,0H26.076a4.13,4.13,0,0,1,7.753,0h.554l.128-.467a3.159,3.159,0,0,0,.111-.833v-.357h-.53a1.434,1.434,0,0,1-1.431-1.433v-.464a1.433,1.433,0,0,1,1.312-1.426l-1.643-2.55a5.406,5.406,0,0,0-2.807-2.189,24.393,24.393,0,0,0-13.057-.572,5.33,5.33,0,0,0-2.038.956.527.527,0,0,1-.636-.84,6.367,6.367,0,0,1,2.437-1.144,25.472,25.472,0,0,1,13.632.6,6.472,6.472,0,0,1,3.356,2.615L35,176.9a4.227,4.227,0,0,1,.672,2.287v1.736a4.234,4.234,0,0,1-.148,1.111l-.1.382a1.157,1.157,0,0,1,.517.969Zm-20.539-8.851-2.972,2.555v.162H19.2v-3.876a22.572,22.572,0,0,0-2.31.4,3.5,3.5,0,0,0-1.488.756Zm15.231,1.022c-.788-1.081-1.848-1.36-3.335-1.73l-.58,3.421H28.7Zm-4.983,1.691.619-3.649a22.8,22.8,0,0,0-6.017-.323v3.978Zm-15.438.422h.79a.383.383,0,0,0,.38-.38v-.79a.38.38,0,0,0-.38-.38h-.79a.38.38,0,0,0-.38.38v.79a.38.38,0,0,0,.38.38Zm-2.707,9.055a3.069,3.069,0,1,0-3.069-3.069A3.069,3.069,0,0,0,7.512,186.716Zm-4.392-7.008v-1.239a2.5,2.5,0,0,0-1.344,1.644h.937a.405.405,0,0,0,.4-.405Zm-1.938,3.57H1.153a.1.1,0,0,0-.1.1v.57a.1.1,0,0,0,.1.1H3.4a4.1,4.1,0,0,1,0-.77Zm28.778,3.439a3.069,3.069,0,1,0-3.069-3.069,3.069,3.069,0,0,0,3.069,3.069Zm4.112-3.439a4.093,4.093,0,0,1,0,.77H34.8a.1.1,0,0,0,.1-.1v-.57a.1.1,0,0,0-.1-.1Zm-.349-4.607v.464a.378.378,0,0,0,.378.378h.53a3.909,3.909,0,0,0-.129-1.219h-.4a.378.378,0,0,0-.38.378Z" transform="translate(0 -142.753)"/><path class="a" d="M105.667,226.913a.527.527,0,1,1,0-1.053h.659a.527.527,0,1,1,0,1.053Z" transform="translate(-88.158 -189.38)"/><path class="a" d="M146.527,226.913a.527.527,0,1,1,0-1.053h.659a.527.527,0,1,1,0,1.053Z" transform="translate(-122.418 -189.38)"/><path class="a" d="M277.745,34.543h-3.09V29a.7.7,0,0,0-1.4,0v5.547h-8.425V21.2a.7.7,0,0,0-.7-.7h-7.3a.7.7,0,0,0-.7.7v13.34H247.7V18.676h.27a.7.7,0,0,0,.5-.205L260.474,6.462l12.011,12.011a.7.7,0,0,0,.5.205h.27v5.267a.7.7,0,0,0,1.4,0V18.676h3.09a.7.7,0,0,0,.5-1.2L260.97.206a.7.7,0,0,0-.993,0l-6.6,6.6a.7.7,0,1,0,.995.993l6.1-6.1,15.575,15.577h-2.781l-12.3-12.3a.7.7,0,0,0-.993,0l-12.3,12.3H244.9l5.542-5.542a.7.7,0,0,0-.993-.992l-6.74,6.739a.7.7,0,0,0,.5,1.2H246.3V34.543H243.2a.7.7,0,1,0,0,1.405h34.542a.7.7,0,1,0,0-1.405Zm-14.323,0h-5.9V21.906h5.892Z" transform="translate(-203.332 -0.001)"/><path class="b" d="M409.527,249.284a2.584,2.584,0,1,1-5.157,0,2.547,2.547,0,0,1,.128-.8h-.646a3.206,3.206,0,1,0,6.311.8,3.157,3.157,0,0,0-.105-.8h-.646a2.546,2.546,0,0,1,.116.8Z" transform="translate(-338.536 -208.352)"/><path class="b" d="M280.2,251.037a1.7,1.7,0,0,0,1.5-2.5h-3a1.677,1.677,0,0,0-.2.8A1.7,1.7,0,0,0,280.2,251.037Z" transform="translate(-233.525 -208.396)"/><path class="b" d="M252.711,221.481a4.09,4.09,0,0,1,3.649,2.248H270.8a4.083,4.083,0,0,1,7.3,0h2.313a.226.226,0,0,0,.223-.223v-3.082a.228.228,0,0,0-.223-.225H245.943a.226.226,0,0,0-.223.225v3.082a.226.226,0,0,0,.223.223h3.125A4.09,4.09,0,0,1,252.711,221.481Z" transform="translate(-206.032 -184.634)"/><path class="b" d="M414.729,251.037a1.7,1.7,0,0,0,1.5-2.5h-3a1.676,1.676,0,0,0-.2.8A1.7,1.7,0,0,0,414.729,251.037Z" transform="translate(-346.318 -208.396)"/><path class="b" d="M275.007,249.284a2.584,2.584,0,1,1-5.157,0,2.547,2.547,0,0,1,.128-.8h-.646a3.206,3.206,0,1,0,6.311.8,3.157,3.157,0,0,0-.1-.8h-.646A2.547,2.547,0,0,1,275.007,249.284Z" transform="translate(-225.744 -208.352)"/><path class="b" d="M275.375,233.56a3.2,3.2,0,0,0-2.625,1.371h.817a2.571,2.571,0,0,1,3.616,0H278A3.208,3.208,0,0,0,275.375,233.56Z" transform="translate(-228.696 -195.836)"/><path class="b" d="M409.925,233.56a3.2,3.2,0,0,0-2.625,1.371h.817a2.571,2.571,0,0,1,3.616,0h.817A3.208,3.208,0,0,0,409.925,233.56Z" transform="translate(-341.513 -195.836)"/><path class="a" d="M271.033,249.286a3.208,3.208,0,1,1-6.311-.8h-.9a4.038,4.038,0,0,0-.079.8,4.086,4.086,0,1,0,8.172,0,4.038,4.038,0,0,0-.08-.8h-.9A3.155,3.155,0,0,1,271.033,249.286Z" transform="translate(-221.141 -208.354)"/><path class="a" d="M270.067,229.005a3.208,3.208,0,0,1,2.626,1.371h1.022a4.083,4.083,0,0,0-7.3,0h1.022A3.2,3.2,0,0,1,270.067,229.005Z" transform="translate(-223.388 -191.281)"/><path class="a" d="M277.319,249.284a1.7,1.7,0,1,1-3.4,0,1.676,1.676,0,0,1,.2-.8h-.95a2.546,2.546,0,0,0-.128.8,2.584,2.584,0,1,0,5.157,0,2.548,2.548,0,0,0-.128-.8h-.95A1.7,1.7,0,0,1,277.319,249.284Z" transform="translate(-228.935 -208.352)"/><path class="a" d="M279.617,237.45a2.573,2.573,0,0,0-1.807.743h3.616A2.573,2.573,0,0,0,279.617,237.45Z" transform="translate(-232.939 -199.098)"/><path class="a" d="M404.642,228.13A4.088,4.088,0,0,0,401,230.378h1.022a3.2,3.2,0,0,1,5.251,0H408.3A4.09,4.09,0,0,0,404.642,228.13Z" transform="translate(-336.231 -191.283)"/><path class="a" d="M405.553,249.286a3.208,3.208,0,1,1-6.311-.8h-.9a4.035,4.035,0,0,0-.079.8,4.085,4.085,0,0,0,8.17,0,4.039,4.039,0,0,0-.078-.8h-.9A3.157,3.157,0,0,1,405.553,249.286Z" transform="translate(-333.934 -208.354)"/><path class="a" d="M414.167,237.45a2.57,2.57,0,0,0-1.807.743h3.616A2.573,2.573,0,0,0,414.167,237.45Z" transform="translate(-345.756 -199.098)"/><path class="a" d="M411.839,249.284a1.7,1.7,0,1,1-3.4,0,1.676,1.676,0,0,1,.2-.8h-.95a2.546,2.546,0,0,0-.128.8,2.584,2.584,0,1,0,5.157,0,2.547,2.547,0,0,0-.128-.8h-.95A1.7,1.7,0,0,1,411.839,249.284Z" transform="translate(-341.727 -208.352)"/><path class="a" d="M275,213.77H240.543a1.263,1.263,0,0,0-1.263,1.263v3.082a1.265,1.265,0,0,0,1.263,1.263h2.767a4.086,4.086,0,0,1,.359-1.04h-3.125a.226.226,0,0,1-.223-.223v-3.082a.226.226,0,0,1,.223-.225H275a.228.228,0,0,1,.223.225v3.082a.226.226,0,0,1-.223.223h-2.313a4.086,4.086,0,0,1,.359,1.04H275a1.263,1.263,0,0,0,1.261-1.263v-3.082A1.263,1.263,0,0,0,275,213.77Z" transform="translate(-200.632 -179.242)"/><path class="a" d="M311.62,242.05a4.086,4.086,0,0,1,.359,1.04h13.715a4.027,4.027,0,0,1,.359-1.04Z" transform="translate(-261.288 -202.955)"/><path class="a" d="M265.611,242.05h-1.022a4.085,4.085,0,0,0-.359,1.04h.9A3.231,3.231,0,0,1,265.611,242.05Z" transform="translate(-221.552 -202.955)"/><path class="a" d="M305.29,242.05a3.194,3.194,0,0,1,.477,1.04h.9a4.085,4.085,0,0,0-.359-1.04Z" transform="translate(-255.98 -202.955)"/><path class="a" d="M273.86,243.09h.95a1.7,1.7,0,0,1,3,0h.95a2.585,2.585,0,0,0-.646-1.04H274.5A2.584,2.584,0,0,0,273.86,243.09Z" transform="translate(-229.627 -202.955)"/><path class="a" d="M439.81,242.05a3.2,3.2,0,0,1,.476,1.04h.9a4.086,4.086,0,0,0-.359-1.04Z" transform="translate(-368.773 -202.955)"/><path class="a" d="M400.156,242.05h-1.018a4.025,4.025,0,0,0-.359,1.04h.9A3.2,3.2,0,0,1,400.156,242.05Z" transform="translate(-334.37 -202.955)"/><path class="a" d="M408.38,243.09h.95a1.7,1.7,0,0,1,3,0h.95a2.585,2.585,0,0,0-.646-1.04h-3.613A2.584,2.584,0,0,0,408.38,243.09Z" transform="translate(-342.419 -202.955)"/></svg>