<svg xmlns="http://www.w3.org/2000/svg" width="8.526" height="15.068" viewBox="0 0 8.526 15.068"><defs><style>.a{fill:#073558;}</style></defs><path class="a" d="M15.279,13.04c-1.9-.494-2.511-1-2.511-1.8,0-.912.841-1.553,2.26-1.553,1.49,0,2.043.712,2.093,1.758h1.85A3.333,3.333,0,0,0,16.284,8.26V6.427H13.773V8.235c-1.624.356-2.93,1.4-2.93,3.022,0,1.934,1.6,2.9,3.934,3.457,2.1.5,2.511,1.235,2.511,2.022,0,.573-.406,1.494-2.26,1.494-1.724,0-2.407-.774-2.495-1.758H10.688a3.515,3.515,0,0,0,3.085,3.206v1.817h2.511V19.7c1.628-.314,2.93-1.256,2.93-2.976,0-2.369-2.034-3.181-3.934-3.679Z" transform="translate(-10.688 -6.427)"/></svg>