<svg xmlns="http://www.w3.org/2000/svg" width="65.233" height="82" viewBox="0 0 65.233 82"><defs><style>.a{fill:#135aa0;}</style></defs><g transform="translate(-52.347)"><g transform="translate(86.351 13.096)"><path class="a" d="M274.49,83.669a6.475,6.475,0,0,0-9.158,0,2.27,2.27,0,1,0,3.21,3.21,1.937,1.937,0,0,1,2.739,0,2.27,2.27,0,0,0,3.21-3.21Z" transform="translate(-264.667 -81.772)"/></g><g transform="translate(83.046 6.464)"><path class="a" d="M260.462,43.62a11.163,11.163,0,0,0-15.769,0,2.27,2.27,0,0,0,3.21,3.21,6.619,6.619,0,0,1,9.35,0,2.27,2.27,0,0,0,3.21-3.21Z" transform="translate(-244.028 -40.36)"/></g><g transform="translate(79.356)"><path class="a" d="M244.8,4.786a16.387,16.387,0,0,0-23.148,0A2.27,2.27,0,0,0,224.865,8a11.842,11.842,0,0,1,16.729,0,2.27,2.27,0,0,0,3.21-3.21Z" transform="translate(-220.991)"/></g><g transform="translate(52.347 21.196)"><path class="a" d="M115.31,138.75a2.268,2.268,0,0,0-.649.1,8.294,8.294,0,0,0-14.136-3.9,8.283,8.283,0,0,0-12.066,0,8.283,8.283,0,0,0-12.066,0,8.3,8.3,0,0,0-14.335,5.7V184.24H54.617a2.27,2.27,0,0,0,0,4.539h8.435a8.292,8.292,0,0,0,13.342,1.761,8.283,8.283,0,0,0,12.066,0,8.283,8.283,0,0,0,12.066,0,8.3,8.3,0,0,0,14.335-5.7V149a2.27,2.27,0,0,0,2.72-2.225V141.02A2.27,2.27,0,0,0,115.31,138.75ZM74.124,184.845a3.763,3.763,0,1,1-7.527,0v-44.2a3.763,3.763,0,0,1,7.527,0Zm12.066,0a3.763,3.763,0,1,1-7.526,0v-44.2a3.763,3.763,0,0,1,7.526,0Zm12.066,0a3.763,3.763,0,1,1-7.527,0v-44.2a3.763,3.763,0,0,1,7.527,0Zm12.066,0a3.763,3.763,0,1,1-7.526,0v-44.2a3.763,3.763,0,0,1,7.526,0Z" transform="translate(-52.347 -132.343)"/></g></g></svg>